<svg width="112" height="28" viewBox="0 0 112 28" fill="none" xmlns="http://www.w3.org/2000/svg">
<path d="M104.475 15.1271C103.366 14.1029 103.287 14.1029 104.237 12.9211C105.425 11.4243 107.009 9.53349 105.584 9.53349H102.97C102.495 9.53349 102.416 9.84862 102.257 10.2425C101.624 11.7394 100.356 13.709 99.8812 13.3938C99.406 13.0787 99.6436 11.897 99.6436 10.0062C99.7228 9.76984 99.6436 9.53349 99.4852 9.37592C99.3268 9.21836 99.0892 9.06079 98.8516 9.06079C98.4556 8.98201 98.0596 8.90323 97.6636 8.90323C96.1587 8.90323 95.1291 9.53349 95.6835 9.61227C96.7131 9.76984 96.6339 11.9758 96.3963 12.9211C96.0003 14.5756 94.4162 11.6606 93.7034 10.1638C93.6242 9.76984 93.3074 9.53349 92.9114 9.53349H90.8521C90.5353 9.53349 90.2977 9.61227 90.2977 9.84862C90.2977 10.2425 92.2778 14.1029 94.0994 16.0725C95.9211 17.9632 97.7428 17.8057 99.01 17.8057C99.1684 17.8057 99.3268 17.7269 99.406 17.6481C99.4852 17.5693 99.5644 17.4118 99.5644 17.2542C99.5644 15.9937 100.04 15.3634 100.911 16.23C101.861 17.1754 102.099 17.8057 103.287 17.8057H105.425C105.98 17.8057 106.138 17.6481 106.138 17.4118C106.217 16.8603 105.267 15.8361 104.475 15.1271ZM98.8516 0.000789162C106.217 0.158354 112.078 6.06705 111.999 13.2363C111.92 20.4055 105.821 26.0778 98.4556 25.9991C91.0105 25.9203 85.0703 20.1691 85.0703 12.9999C85.1495 5.75192 91.3273 -0.0779935 98.8516 0.000789162Z" fill="#CDCDCD"/>
<path fill-rule="evenodd" clip-rule="evenodd" d="M27 14.5C27 7.04462 20.9562 1 13.5 1C6.04379 1 0 7.04462 0 14.5C0 21.9562 6.04369 28 13.5 28C20.9562 28 27 21.9563 27 14.5ZM16.8836 10.2939H15.1437C14.6754 10.2939 14.3464 10.6905 14.3464 11.185V11.9604H16.8312L16.4288 14.4772H14.3455V21.2238H11.8025V14.4772H10.115V11.9604H11.8025V10.677H11.8075C11.8523 9.21392 12.3602 7.82092 14.8383 7.73315V7.72388H16.8836V10.2939Z" fill="#CDCDCD"/>
<path d="M55.8512 11.957C56.8668 11.957 57.6568 11.1213 57.638 10.2113C57.6568 9.3013 56.8857 8.44702 55.87 8.44702C54.892 8.44702 54.0833 9.22702 54.0833 10.1927C54.0833 11.1584 54.8732 11.957 55.8512 11.957Z" fill="#CDCDCD"/>
<path d="M55.701 1C48.4411 1 42.5354 6.8314 42.5354 13.9999C42.5354 21.187 48.4411 26.9999 55.701 26.9999C62.9797 26.9999 68.8667 21.1685 68.8667 13.9999C68.8855 6.8314 62.9797 1 55.701 1ZM55.8891 5.9214C58.2589 5.9214 60.215 7.85282 60.1962 10.2114C60.1962 12.5885 58.2213 14.5014 55.8139 14.4642C53.4441 14.4271 51.5445 12.5142 51.5445 10.1928C51.5445 7.83425 53.4817 5.9214 55.8891 5.9214ZM60.7228 15.9499C60.7228 15.9871 60.704 16.0056 60.704 16.0428C60.6475 16.4142 60.4595 16.7114 60.1397 16.9156C59.9328 17.0456 59.7071 17.1756 59.4814 17.2871C58.9172 17.5656 58.3153 17.7885 57.6947 17.9371C57.6195 17.9556 57.6195 17.9556 57.6759 18.0113C58.0144 18.3456 58.3718 18.6985 58.7103 19.0328C59.1429 19.4599 59.5943 19.9056 60.0269 20.3328C60.6475 20.9456 60.4783 21.967 59.6883 22.3385C59.5567 22.4128 59.4062 22.4313 59.2558 22.4685C59.1805 22.4685 59.0865 22.4685 59.0112 22.4685C58.9924 22.4685 58.9736 22.4685 58.9736 22.4499C58.6727 22.4128 58.4282 22.2642 58.2025 22.0599C57.4502 21.317 56.679 20.5556 55.9267 19.8128C55.8703 19.7571 55.8703 19.7571 55.8139 19.8128C55.0427 20.5742 54.2904 21.317 53.5193 22.0785C53.3876 22.2085 53.256 22.3013 53.0867 22.3756C52.9739 22.4313 52.8422 22.4499 52.7294 22.4685C52.6541 22.4685 52.5789 22.4685 52.4849 22.4685C52.4472 22.4685 52.4284 22.4499 52.3908 22.4499C51.883 22.357 51.5445 22.0785 51.394 21.5956C51.2435 21.1128 51.3564 20.6856 51.7137 20.3328C52.0335 20.017 52.3344 19.7199 52.6541 19.4042C53.1243 18.9399 53.5945 18.4756 54.0459 18.0299C54.1023 17.9742 54.1023 17.9742 54.0271 17.9556C54.0083 17.9556 53.9707 17.9371 53.9519 17.9371C53.1055 17.7328 52.3344 17.3985 51.6009 16.9528C51.1683 16.6742 50.9614 16.2656 51.0178 15.7642C51.1119 14.8356 52.1651 14.3342 52.9551 14.8356C53.1055 14.9285 53.2372 15.0028 53.4064 15.0771C54.2716 15.5042 55.1932 15.6899 56.1524 15.6342C56.6226 15.6156 57.0928 15.5228 57.563 15.3742C58.0144 15.2256 58.4094 15.0214 58.8232 14.7985C59.5003 14.4085 60.3842 14.7242 60.6475 15.4485C60.6852 15.5599 60.704 15.6528 60.7228 15.7642C60.7228 15.8199 60.7228 15.8756 60.7228 15.9499Z" fill="#CDCDCD"/>
</svg>
