<?xml version="1.0"?>
<svg width="29" height="35" xmlns="http://www.w3.org/2000/svg" xmlns:svg="http://www.w3.org/2000/svg">
 <g class="layer">
  <title>Layer 1</title>
  <path class="path-to-fill" d="m3.19,11.66l-1.49,-1.47c-0.81,-0.8 -0.81,-2.1 0,-2.9c0.81,-0.8 2.12,-0.8 2.93,0l1.59,1.57c1.65,-1.14 3.54,-1.93 5.52,-2.31l0,-2.04l-1.38,0c-0.38,0 -0.69,-0.3 -0.69,-0.68l0,-1.78c0,-1.13 0.93,-2.05 2.07,-2.05l5.52,0c1.14,0 2.07,0.92 2.07,2.05l0,1.78c0,0.38 -0.31,0.68 -0.69,0.68l-1.38,0l0,2.04c1.98,0.38 3.87,1.17 5.52,2.31l1.59,-1.57c0.81,-0.8 2.12,-0.8 2.93,0c0.81,0.8 0.81,2.1 0,2.9l-1.49,1.47c2.06,2.54 3.19,5.71 3.19,8.98c0,7.92 -6.5,14.36 -14.5,14.36c-8,0 -14.5,-6.44 -14.5,-14.36c0,-3.27 1.13,-6.44 3.19,-8.98zm0.46,-3.4c-0.26,-0.27 -0.7,-0.27 -0.97,0c-0.27,0.26 -0.27,0.7 0,0.96l1.43,1.42c0.32,-0.33 0.65,-0.64 1,-0.94l-1.46,-1.44zm14.3,-6.21c0,-0.38 -0.31,-0.68 -0.69,-0.68l-5.52,0c-0.38,0 -0.69,0.3 -0.69,0.68l0,1.09l6.9,0l0,-1.09zm-4.83,2.46l0,1.84c0.91,-0.08 1.85,-0.08 2.76,0l0,-1.84l-2.76,0zm13.2,3.75c-0.27,-0.27 -0.71,-0.27 -0.97,0l-1.46,1.44c0.35,0.3 0.68,0.61 1,0.94l1.43,-1.42c0.27,-0.26 0.27,-0.7 0,-0.96zm-11.82,25.37c7.23,0 13.12,-5.82 13.12,-12.99c0,-3.15 -1.16,-6.2 -3.26,-8.57c-0.58,-0.65 -1.23,-1.25 -1.92,-1.77c-1.75,-1.31 -3.81,-2.18 -5.97,-2.5c-0.65,-0.09 -1.31,-0.14 -1.97,-0.14c-0.66,0 -1.32,0.05 -1.97,0.14c-2.16,0.32 -4.22,1.19 -5.97,2.5c-0.69,0.52 -1.34,1.12 -1.92,1.77c-2.1,2.37 -3.26,5.42 -3.26,8.57c0,7.17 5.89,12.99 13.12,12.99z" id="svg_1"/>
  <path class="path-to-fill" d="m14.5,22.7c-1.14,0 -2.07,-0.92 -2.07,-2.06c0,-0.89 0.58,-1.65 1.38,-1.93l0,-4.9c0,-0.38 0.31,-0.68 0.69,-0.68c0.38,0 0.69,0.3 0.69,0.68l0,4.9c0.8,0.28 1.38,1.04 1.38,1.93c0,1.14 -0.93,2.06 -2.07,2.06zm0,-2.74c-0.38,0 -0.69,0.31 -0.69,0.68c0,0.38 0.31,0.69 0.69,0.69c0.38,0 0.69,-0.31 0.69,-0.69c0,-0.37 -0.31,-0.68 -0.69,-0.68z" id="svg_2"/>
  <path  class="path-to-fill" d="m7.14,13.43c0.02,-0.01 0.03,-0.02 0.04,-0.03c0.01,-0.02 0.02,-0.03 0.04,-0.04c1.22,-1.19 2.72,-2.07 4.35,-2.55c0.37,-0.11 0.75,0.1 0.86,0.46c0.11,0.36 -0.1,0.74 -0.47,0.85c-1.21,0.35 -2.33,0.96 -3.3,1.78l0.47,0.46c0.27,0.27 0.27,0.7 0,0.97c-0.14,0.13 -0.31,0.2 -0.49,0.2c-0.18,0 -0.35,-0.07 -0.49,-0.2l-0.46,-0.46c-1.25,1.43 -2,3.2 -2.14,5.09l0.66,0c0.39,0 0.69,0.31 0.69,0.68c0,0.38 -0.3,0.69 -0.69,0.69l-0.66,0c0.14,1.89 0.89,3.66 2.14,5.09l0.46,-0.46c0.27,-0.27 0.71,-0.27 0.98,0c0.27,0.27 0.27,0.7 0,0.97l-0.47,0.46c1.46,1.24 3.24,1.97 5.15,2.12l0,-0.66c0,-0.38 0.31,-0.69 0.69,-0.69c0.38,0 0.69,0.31 0.69,0.69l0,0.65c1.91,-0.14 3.69,-0.87 5.15,-2.11l-0.47,-0.46c-0.27,-0.27 -0.27,-0.7 0,-0.97c0.27,-0.27 0.71,-0.27 0.98,0l0.46,0.46c1.25,-1.43 2,-3.21 2.14,-5.09l-0.66,0c-0.39,0 -0.69,-0.31 -0.69,-0.69c0,-0.37 0.3,-0.68 0.69,-0.68l0.66,0c-0.14,-1.89 -0.89,-3.66 -2.14,-5.09l-0.46,0.46c-0.14,0.13 -0.31,0.2 -0.49,0.2c-0.18,0 -0.35,-0.07 -0.49,-0.2c-0.27,-0.27 -0.27,-0.7 0,-0.97l0.47,-0.46c-0.97,-0.82 -2.09,-1.43 -3.3,-1.78c-0.37,-0.11 -0.58,-0.49 -0.47,-0.85c0.11,-0.36 0.49,-0.57 0.86,-0.46c1.63,0.47 3.13,1.36 4.35,2.55c0.01,0.01 0.03,0.02 0.04,0.04c0.01,0.01 0.02,0.02 0.04,0.03c1.93,1.94 3,4.5 3,7.21c0,2.72 -1.07,5.28 -3,7.22c-0.02,0.01 -0.03,0.02 -0.04,0.03c-0.01,0.02 -0.02,0.03 -0.03,0.04c-1.96,1.91 -4.54,2.97 -7.29,2.97c-2.75,0 -5.33,-1.06 -7.28,-2.97c-0.02,-0.01 -0.03,-0.02 -0.04,-0.04c-0.01,-0.01 -0.02,-0.02 -0.03,-0.03c-1.94,-1.94 -3.01,-4.5 -3.01,-7.22c0,-2.71 1.07,-5.27 3,-7.21z" id="svg_3"/>
  <path  class="path-to-fill" d="m14.5,11.76c-0.38,0 -0.69,-0.31 -0.69,-0.69c0,-0.37 0.31,-0.68 0.69,-0.68c0.38,0 0.69,0.31 0.69,0.68c0,0.38 -0.31,0.69 -0.69,0.69z" id="svg_4"/>
 </g>
</svg>